# xmcd
#
# Track frame offsets: 
#        150
#        17885
#        33427
#        48437
#        60195
#        76780
#        94432
#        107462
#        123475
#        141822
#
# Disc length: 2086 seconds
#
# Revision: 3
# Processed by: cddbd v1.5PL3 Copyright (c) Steve Scherf et al.
# Submitted via: ExactAudioCopy v0.95a3
#
DISCID=7908240a
DTITLE=Darryl and Don Ellis - Day In The Sun
DYEAR=1993
DGENRE=Country
TTITLE0=She Needs A Heart
TTITLE1=10 Minutes Till
TTITLE2=Goodbye Eyes
TTITLE3=Kentucky Woman
TTITLE4=My Day In The Sun
TTITLE5=Walk On Out Of My Mind
TTITLE6=Lonely People
TTITLE7=Give 'em My Number
TTITLE8=Movers And Shakers
TTITLE9=When It Rains
EXTD=
EXTT0=
EXTT1=
EXTT2=
EXTT3=
EXTT4=
EXTT5=
EXTT6=
EXTT7=
EXTT8=
EXTT9=
PLAYORDER=
